<svg width="62" height="45" viewBox="0 0 62 45" fill="none" xmlns="http://www.w3.org/2000/svg">
<path d="M59.8215 16.8046V33.8916M58.1698 19.4303C58.6796 19.2054 59.1122 18.8359 59.4141 18.3675C59.7159 17.8992 59.8738 17.3525 59.868 16.7953C59.8623 16.2382 59.6932 15.6949 59.3817 15.2329C59.0702 14.7708 58.63 14.4103 58.1157 14.196L33.7069 3.07808C32.9648 2.73961 32.1588 2.56445 31.3432 2.56445C30.5276 2.56445 29.7215 2.73961 28.9795 3.07808L4.57351 14.1846C4.0665 14.4067 3.63519 14.7717 3.33233 15.2349C3.02946 15.6982 2.86816 16.2397 2.86816 16.7932C2.86816 17.3467 3.02946 17.8882 3.33233 18.3515C3.63519 18.8148 4.0665 19.1798 4.57351 19.4019L28.9795 30.5312C29.7215 30.8696 30.5276 31.0448 31.3432 31.0448C32.1588 31.0448 32.9648 30.8696 33.7069 30.5312L58.1698 19.4303Z" stroke="black" stroke-width="4.19117" stroke-linecap="round" stroke-linejoin="round"/>
<path d="M14.2559 23.9238V33.8912C14.2559 36.1571 16.0561 38.3302 19.2605 39.9324C22.465 41.5346 26.8111 42.4347 31.3429 42.4347C35.8746 42.4347 40.2208 41.5346 43.4252 39.9324C46.6297 38.3302 48.4299 36.1571 48.4299 33.8912V23.9238" stroke="black" stroke-width="4.19117" stroke-linecap="round" stroke-linejoin="round"/>
</svg>
