<svg width="66" height="65" viewBox="0 0 66 65" fill="none" xmlns="http://www.w3.org/2000/svg">
<path d="M30.4095 19.0206C31.4387 17.1708 31.9533 16.25 32.7224 16.25C33.4916 16.25 34.0062 17.1708 35.0354 19.0206L35.3008 19.4973C35.5933 20.0227 35.7395 20.2827 35.967 20.456C36.1972 20.6294 36.4816 20.6944 37.0504 20.8217L37.5649 20.9408C39.5637 21.3931 40.5631 21.6179 40.8014 22.3817C41.0397 23.1454 40.3572 23.9444 38.9949 25.5369L38.6429 25.9485C38.2556 26.4008 38.0606 26.6256 37.9739 26.9073C37.8872 27.189 37.917 27.4896 37.9739 28.0935L38.0281 28.6433C38.2339 30.7694 38.3368 31.8338 37.7166 32.305C37.0937 32.7763 36.1566 32.3456 34.2851 31.4844L33.8031 31.2623C33.2695 31.0185 33.0041 30.8967 32.7224 30.8967C32.4408 30.8967 32.1754 31.0185 31.6418 31.2623L31.1597 31.4844C29.2883 32.3483 28.3512 32.7763 27.7283 32.305C27.1054 31.8338 27.211 30.7694 27.4168 28.6433L27.471 28.0935C27.5279 27.4896 27.5576 27.189 27.471 26.9073C27.3843 26.6256 27.1893 26.4008 26.802 25.9485L26.4499 25.5369C25.0876 23.9444 24.4051 23.1481 24.6435 22.3817C24.8818 21.6179 25.8812 21.3931 27.8799 20.9408L28.3945 20.8217C28.9633 20.6944 29.2476 20.6321 29.4779 20.456C29.7054 20.2827 29.8516 20.0227 30.1441 19.4973L30.4095 19.0206Z" stroke="black" stroke-width="4"/>
<path d="M51.6803 24.3753C51.6803 26.865 51.19 29.3302 50.2372 31.6304C49.2845 33.9305 47.888 36.0204 46.1276 37.7809C44.3671 39.5413 42.2772 40.9378 39.977 41.8905C37.6769 42.8433 35.2117 43.3337 32.722 43.3337C30.2324 43.3337 27.7671 42.8433 25.467 41.8905C23.1668 40.9378 21.0769 39.5413 19.3164 37.7809C17.556 36.0204 16.1595 33.9305 15.2068 31.6304C14.254 29.3302 13.7637 26.865 13.7637 24.3753C13.7637 19.3473 15.7611 14.5251 19.3164 10.9698C22.8718 7.41438 27.6939 5.41699 32.722 5.41699C37.7501 5.41699 42.5722 7.41438 46.1276 10.9698C49.6829 14.5251 51.6803 19.3473 51.6803 24.3753Z" stroke="black" stroke-width="4"/>
<path d="M20.1312 40.625L18.406 46.9165C16.7052 53.124 15.8548 56.2277 16.9896 57.9258C17.3877 58.5217 17.9212 58.9983 18.5414 59.3152C20.3073 60.2144 23.0373 58.7925 28.4946 55.9488C30.3091 55.0008 31.2191 54.5296 32.1833 54.4267C32.5417 54.3908 32.9028 54.3908 33.2612 54.4267C34.2254 54.5296 35.1327 55.0035 36.95 55.9488C42.4073 58.7925 45.1373 60.2144 46.9031 59.3152C47.5233 58.9983 48.0569 58.5217 48.455 57.9258C49.5925 56.2277 48.7394 53.124 47.0385 46.9165L45.3133 40.625" stroke="black" stroke-width="4" stroke-linecap="round"/>
</svg>
