<svg width="607" height="607" viewBox="0 0 607 607" fill="none" xmlns="http://www.w3.org/2000/svg">
<path d="M272.438 304.003C272.438 312.202 275.696 320.066 281.494 325.864C287.292 331.662 295.156 334.919 303.355 334.919C311.555 334.919 319.419 331.662 325.217 325.864C331.015 320.066 334.272 312.202 334.272 304.003C334.272 295.803 331.015 287.939 325.217 282.141C319.419 276.343 311.555 273.086 303.355 273.086C295.156 273.086 287.292 276.343 281.494 282.141C275.696 287.939 272.438 295.803 272.438 304.003Z" stroke="white" stroke-width="49.5019" stroke-linecap="round" stroke-linejoin="round"/>
<path d="M303.355 149.418C272.781 149.418 242.894 158.484 217.473 175.47C192.052 192.456 172.239 216.598 160.539 244.845C148.838 273.091 145.777 304.173 151.742 334.159C157.706 364.145 172.429 391.689 194.048 413.308C215.667 434.927 243.211 449.65 273.197 455.614C303.183 461.579 334.265 458.518 362.511 446.818C390.758 435.118 414.9 415.304 431.886 389.883C448.872 364.462 457.938 334.575 457.938 304.001" stroke="white" stroke-width="49.5019" stroke-linecap="round" stroke-linejoin="round"/>
<path d="M334.272 27.4508C276.954 21.0205 219.055 32.5607 168.583 60.4751C118.111 88.3895 77.5611 131.298 52.5419 183.266C27.5227 235.234 19.2711 293.693 28.9284 350.556C38.5857 407.418 65.6747 459.875 106.448 500.669C147.222 541.463 199.665 568.578 256.522 578.264C313.38 587.95 371.843 579.728 423.824 554.735C475.804 529.742 518.734 489.214 546.673 438.756C574.613 388.298 586.183 330.404 579.781 273.084" stroke="white" stroke-width="49.5019" stroke-linecap="round" stroke-linejoin="round"/>
<path d="M396.105 211.25V118.5L488.855 25.75V118.5H581.605L488.855 211.25H396.105ZM396.105 211.25L303.355 304" stroke="white" stroke-width="49.5019" stroke-linecap="round" stroke-linejoin="round"/>
</svg>
