<svg width="619" height="620" viewBox="0 0 619 620" fill="none" xmlns="http://www.w3.org/2000/svg">
<path d="M309.167 464.586L357.397 358.851L463.75 310.003L357.397 261.773L309.167 155.419L260.628 261.773L154.583 310.003L260.628 358.851L309.167 464.586ZM190.756 24.3326C228.322 8.87267 268.544 0.891325 309.167 0.835938C349.668 0.835937 389.859 8.87427 427.578 24.3326C464.987 39.7909 498.995 62.6693 527.748 91.4218C556.5 120.174 579.379 154.183 594.837 191.592C610.295 229.31 618.333 269.502 618.333 310.003C618.333 391.932 585.871 470.769 527.748 528.583C499.076 557.335 465.006 580.139 427.495 595.685C389.984 611.23 349.771 619.211 309.167 619.169C268.544 619.114 228.322 611.133 190.756 595.673C153.287 580.1 119.25 557.303 90.586 528.583C61.8341 499.912 39.0304 465.842 23.4848 428.331C7.93926 390.82 -0.041781 350.607 0.000164482 310.003C0.000164482 228.073 32.4627 149.236 90.586 91.4218C119.338 62.6693 153.347 39.7909 190.756 24.3326ZM134.178 484.991C180.553 531.366 243.624 557.336 309.167 557.336C374.71 557.336 437.78 531.366 484.155 484.991C530.53 438.616 556.5 375.546 556.5 310.003C556.5 244.459 530.53 181.389 484.155 135.014C461.169 112.053 433.883 93.846 403.858 81.4329C373.833 69.0197 341.657 62.6437 309.167 62.6693C243.624 62.6693 180.553 88.6393 134.178 135.014C111.217 158.001 93.0103 185.286 80.5971 215.311C68.1839 245.336 61.8079 277.513 61.8335 310.003C61.8335 375.546 87.8035 438.616 134.178 484.991Z" fill="white"/>
</svg>
