<svg width="631" height="631" viewBox="0 0 631 631" fill="none" xmlns="http://www.w3.org/2000/svg">
<path d="M315.417 0.0859375C489.621 0.0859375 630.833 141.298 630.833 315.503C630.833 489.707 489.621 630.919 315.417 630.919C141.212 630.919 0 489.707 0 315.503C0 141.298 141.212 0.0859375 315.417 0.0859375ZM315.417 63.1693C248.494 63.1693 184.312 89.7543 136.99 137.076C89.6684 184.398 63.0833 248.58 63.0833 315.503C63.0833 382.426 89.6684 446.608 136.99 493.929C184.312 541.251 248.494 567.836 315.417 567.836C382.34 567.836 446.522 541.251 493.843 493.929C541.165 446.608 567.75 382.426 567.75 315.503C567.75 248.58 541.165 184.398 493.843 137.076C446.522 89.7543 382.34 63.1693 315.417 63.1693ZM315.417 157.794C348.617 157.807 380.967 168.297 407.857 187.77C434.747 207.242 454.805 234.705 465.175 266.244C475.545 297.783 475.697 331.791 465.609 363.421C455.521 395.052 435.709 422.692 408.993 442.404C382.278 462.117 350.024 472.895 316.825 473.204C283.626 473.513 251.176 463.337 224.099 444.126C197.022 424.914 176.698 397.648 166.023 366.21C155.348 334.773 154.867 300.769 164.647 269.042C172.026 285.529 184.843 298.982 200.954 307.149C217.065 315.316 235.492 317.703 253.152 313.908C270.812 310.114 286.633 300.37 297.967 286.306C309.301 272.241 315.462 254.711 315.417 236.648C315.421 221.46 311.039 206.594 302.796 193.836C294.554 181.079 282.803 170.973 268.956 164.733C284.009 160.114 299.67 157.775 315.417 157.794Z" fill="white"/>
</svg>
