<svg width="29" height="23" viewBox="0 0 29 23" fill="none" xmlns="http://www.w3.org/2000/svg">
<path d="M2.85061 22.8049C2.06669 22.8049 1.39585 22.526 0.838079 21.9682C0.28031 21.4105 0.000950203 20.7391 0 19.9543V2.85061C0 2.06669 0.27936 1.39585 0.838079 0.838079C1.3968 0.28031 2.06764 0.000950203 2.85061 0H25.6555C26.4394 0 27.1107 0.27936 27.6694 0.838079C28.2282 1.3968 28.507 2.06764 28.5061 2.85061V19.9543C28.5061 20.7382 28.2272 21.4095 27.6694 21.9682C27.1117 22.5269 26.4404 22.8058 25.6555 22.8049H2.85061ZM14.253 12.8277L2.85061 5.70122V19.9543H25.6555V5.70122L14.253 12.8277ZM14.253 9.97713L25.6555 2.85061H2.85061L14.253 9.97713ZM2.85061 5.70122V2.85061V19.9543V5.70122Z" fill="white"/>
</svg>
