<svg width="21" height="22" viewBox="0 0 21 22" fill="none" xmlns="http://www.w3.org/2000/svg">
<path d="M16.5 8.25033C15.6292 8.25033 14.8729 7.9906 14.2312 7.47116C13.5896 6.95171 13.1618 6.29477 12.9479 5.50033H7.19583C7.02778 6.14199 6.71092 6.69596 6.24525 7.16224C5.77958 7.62852 5.22561 7.94538 4.58333 8.11283V13.8649C5.37778 14.0788 6.03472 14.5066 6.55417 15.1482C7.07361 15.7899 7.33333 16.5462 7.33333 17.417C7.33333 18.4253 6.97431 19.2885 6.25625 20.0066C5.53819 20.7246 4.675 21.0837 3.66667 21.0837C2.65833 21.0837 1.79514 20.7246 1.07708 20.0066C0.359028 19.2885 0 18.4253 0 17.417C0 16.5462 0.259722 15.7899 0.779167 15.1482C1.29861 14.5066 1.95556 14.0788 2.75 13.8649V8.11283C1.95556 7.89894 1.29861 7.47116 0.779167 6.82949C0.259722 6.18783 0 5.43921 0 4.58366C0 3.57533 0.359028 2.71213 1.07708 1.99408C1.79514 1.27602 2.65833 0.916992 3.66667 0.916992C4.52222 0.916992 5.27083 1.17671 5.9125 1.69616C6.55417 2.2156 6.98194 2.87255 7.19583 3.66699H12.9479C13.1618 2.87255 13.5896 2.2156 14.2312 1.69616C14.8729 1.17671 15.6292 0.916992 16.5 0.916992C17.5083 0.916992 18.3715 1.27602 19.0896 1.99408C19.8076 2.71213 20.1667 3.57533 20.1667 4.58366C20.1667 5.59199 19.8076 6.45519 19.0896 7.17324C18.3715 7.8913 17.5083 8.25033 16.5 8.25033ZM16.5 21.0837C15.4917 21.0837 14.6285 20.7246 13.9104 20.0066C13.1924 19.2885 12.8333 18.4253 12.8333 17.417C12.8333 16.4087 13.1924 15.5455 13.9104 14.8274C14.6285 14.1094 15.4917 13.7503 16.5 13.7503C17.5083 13.7503 18.3715 14.1094 19.0896 14.8274C19.8076 15.5455 20.1667 16.4087 20.1667 17.417C20.1667 18.4253 19.8076 19.2885 19.0896 20.0066C18.3715 20.7246 17.5083 21.0837 16.5 21.0837Z" fill="#767676"/>
</svg>
