<svg width="17" height="18" viewBox="0 0 17 18" fill="none" xmlns="http://www.w3.org/2000/svg">
<path d="M0.0830078 16.001V7.00098C0.0830078 6.68431 0.154008 6.38431 0.296008 6.10098C0.438008 5.81764 0.633675 5.58431 0.883008 5.40098L6.88301 0.900977C7.23301 0.63431 7.63301 0.500977 8.08301 0.500977C8.53301 0.500977 8.93301 0.63431 9.28301 0.900977L15.283 5.40098C15.533 5.58431 15.729 5.81764 15.871 6.10098C16.013 6.38431 16.0837 6.68431 16.083 7.00098V16.001C16.083 16.551 15.887 17.022 15.495 17.414C15.103 17.806 14.6323 18.0016 14.083 18.001H11.083C10.7997 18.001 10.5623 17.905 10.371 17.713C10.1797 17.521 10.0837 17.2836 10.083 17.001V12.001C10.083 11.7176 9.98701 11.4803 9.79501 11.289C9.60301 11.0976 9.36567 11.0016 9.08301 11.001H7.08301C6.79967 11.001 6.56234 11.097 6.37101 11.289C6.17967 11.481 6.08367 11.7183 6.08301 12.001V17.001C6.08301 17.2843 5.98701 17.522 5.79501 17.714C5.60301 17.906 5.36567 18.0016 5.08301 18.001H2.08301C1.53301 18.001 1.06234 17.8053 0.671008 17.414C0.279674 17.0226 0.0836745 16.5516 0.0830078 16.001Z" fill="white"/>
</svg>
