<svg width="21" height="20" viewBox="0 0 21 20" fill="none" xmlns="http://www.w3.org/2000/svg">
<path d="M9.08301 15H11.083V9H9.08301V15ZM10.083 7C10.3663 7 10.604 6.904 10.796 6.712C10.988 6.52 11.0837 6.28267 11.083 6C11.0823 5.71733 10.9863 5.48 10.795 5.288C10.6037 5.096 10.3663 5 10.083 5C9.79968 5 9.56234 5.096 9.37101 5.288C9.17968 5.48 9.08368 5.71733 9.08301 6C9.08234 6.28267 9.17834 6.52033 9.37101 6.713C9.56368 6.90567 9.80101 7.00133 10.083 7ZM10.083 20C8.69968 20 7.39968 19.7373 6.18301 19.212C4.96634 18.6867 3.90801 17.9743 3.00801 17.075C2.10801 16.1757 1.39568 15.1173 0.871009 13.9C0.346343 12.6827 0.0836757 11.3827 0.0830091 10C0.0823424 8.61733 0.345009 7.31733 0.871009 6.1C1.39701 4.88267 2.10934 3.82433 3.00801 2.925C3.90668 2.02567 4.96501 1.31333 6.18301 0.788C7.40101 0.262667 8.70101 0 10.083 0C11.465 0 12.765 0.262667 13.983 0.788C15.201 1.31333 16.2593 2.02567 17.158 2.925C18.0567 3.82433 18.7693 4.88267 19.296 6.1C19.8227 7.31733 20.085 8.61733 20.083 10C20.081 11.3827 19.8183 12.6827 19.295 13.9C18.7717 15.1173 18.0593 16.1757 17.158 17.075C16.2567 17.9743 15.1983 18.687 13.983 19.213C12.7677 19.739 11.4677 20.0013 10.083 20Z" fill="#767676"/>
</svg>
