<svg width="93" height="93" viewBox="0 0 93 93" fill="none" xmlns="http://www.w3.org/2000/svg">
<g filter="url(#filter0_d_1052_732)">
<path d="M32.5 36L43 46.5L32.5 57M50 57H60.5" stroke="white" stroke-width="5.25" stroke-linecap="round" stroke-linejoin="round"/>
<path d="M15 37.4C15 29.56 15 25.64 16.526 22.644C17.8682 20.0098 20.0098 17.8682 22.644 16.526C25.64 15 29.56 15 37.4 15H55.6C63.44 15 67.36 15 70.356 16.526C72.9902 17.8682 75.1318 20.0098 76.474 22.644C78 25.64 78 29.56 78 37.4V55.6C78 63.44 78 67.36 76.474 70.356C75.1318 72.9902 72.9902 75.1318 70.356 76.474C67.36 78 63.44 78 55.6 78H37.4C29.56 78 25.64 78 22.644 76.474C20.0098 75.1318 17.8682 72.9902 16.526 70.356C15 67.36 15 63.44 15 55.6V37.4Z" stroke="white" stroke-width="5.25" stroke-linecap="round" stroke-linejoin="round"/>
</g>
<defs>
<filter id="filter0_d_1052_732" x="0.375" y="0.375" width="92.25" height="92.25" filterUnits="userSpaceOnUse" color-interpolation-filters="sRGB">
<feFlood flood-opacity="0" result="BackgroundImageFix"/>
<feColorMatrix in="SourceAlpha" type="matrix" values="0 0 0 0 0 0 0 0 0 0 0 0 0 0 0 0 0 0 127 0" result="hardAlpha"/>
<feOffset/>
<feGaussianBlur stdDeviation="6"/>
<feComposite in2="hardAlpha" operator="out"/>
<feColorMatrix type="matrix" values="0 0 0 0 1 0 0 0 0 1 0 0 0 0 1 0 0 0 1 0"/>
<feBlend mode="normal" in2="BackgroundImageFix" result="effect1_dropShadow_1052_732"/>
<feBlend mode="normal" in="SourceGraphic" in2="effect1_dropShadow_1052_732" result="shape"/>
</filter>
</defs>
</svg>
