<svg width="83" height="83" viewBox="0 0 83 83" fill="none" xmlns="http://www.w3.org/2000/svg">
<g filter="url(#filter0_d_1052_736)">
<path fill-rule="evenodd" clip-rule="evenodd" d="M49.647 12.2287C52.3546 9.5211 56.0269 8 59.8559 8C63.685 8 67.3573 9.5211 70.0649 12.2287C72.7724 14.9362 74.2935 18.6085 74.2935 22.4376C74.2935 26.2667 72.7724 29.9389 70.0649 32.6465L40.8163 61.895C39.1452 63.5662 38.1647 64.5467 37.067 65.4008C35.7761 66.4121 34.3886 67.2703 32.9045 67.9753C31.6527 68.5704 30.333 69.0113 28.0945 69.7575L17.8208 73.18L15.348 74.0063C14.3645 74.3347 13.309 74.3825 12.2998 74.1445C11.2907 73.9065 10.3678 73.3921 9.63459 72.6589C8.90142 71.9258 8.387 71.0029 8.14901 69.9937C7.91101 68.9845 7.95886 67.929 8.28718 66.9455L12.536 54.2021C13.2822 51.9605 13.7231 50.6408 14.3182 49.3859C15.0253 47.9059 15.8835 46.5184 16.8928 45.2234C17.7438 44.1319 18.7273 43.1483 20.3985 41.4772L49.647 12.2287ZM17.7129 68.3453L26.4727 65.4223C28.9116 64.6083 29.9476 64.2599 30.9127 63.8005C32.0885 63.2373 33.1913 62.5559 34.2211 61.7563C35.0628 61.0964 35.8399 60.3287 37.659 58.5095L60.9999 35.1687C57.7997 34.0347 54.8948 32.1971 52.4991 29.7913C50.0956 27.3951 48.2601 24.4902 47.1279 21.2906L23.7871 44.6314C21.9679 46.4475 21.1971 47.2214 20.5403 48.0663C19.7387 49.094 19.0573 50.1968 18.4961 51.3747C18.0367 52.3398 17.6883 53.3758 16.8743 55.8147L13.9513 64.5806L17.7129 68.3453ZM50.8742 17.5382C50.9821 18.0778 51.1579 18.8116 51.4569 19.6657C52.359 22.2466 53.8349 24.5891 55.7736 26.5168C57.7004 28.4551 60.0419 29.9311 62.6217 30.8335C63.4789 31.1326 64.2127 31.3083 64.7523 31.4163L66.7934 29.3751C68.6227 27.5329 69.6474 25.0408 69.6428 22.4447C69.6383 19.8486 68.6049 17.3601 66.7692 15.5243C64.9335 13.6886 62.445 12.6553 59.8488 12.6507C57.2527 12.6462 54.7606 13.6708 52.9184 15.5001L50.8742 17.5382Z" fill="white"/>
<path d="M59.8555 10C63.154 10 66.3179 11.3103 68.6504 13.6426C70.9829 15.9751 72.2939 19.1389 72.2939 22.4375C72.2939 25.633 71.0635 28.7015 68.8662 31.0107L68.6504 31.2324L39.4023 60.4805C37.9156 61.9672 37.0514 62.8274 36.2031 63.5293L35.8389 63.8223L35.834 63.8262C34.8062 64.6313 33.7115 65.3299 32.5488 65.9219L32.0459 66.1689C31.2072 66.5677 30.3275 66.8929 28.9805 67.3506L27.4619 67.8604L17.1885 71.2822L17.1865 71.2832L14.7139 72.1094C14.083 72.3198 13.406 72.3509 12.7588 72.1982C12.1114 72.0456 11.5192 71.7154 11.0488 71.2451C10.5784 70.7747 10.2484 70.1817 10.0957 69.5342C9.96219 68.9677 9.9684 68.3785 10.1133 67.8174L10.1846 67.5791V67.5781L14.4336 54.835V54.834C15.1903 52.5606 15.5921 51.3687 16.123 50.248C16.7679 48.8985 17.5501 47.6343 18.4707 46.4531L18.4697 46.4521C19.0389 45.7222 19.6796 45.0407 20.6807 44.0283L21.8125 42.8916L51.0615 13.6426C53.3939 11.3104 56.5571 10.0001 59.8555 10ZM45.7139 19.876L22.374 43.2158C20.5927 44.9941 19.7144 45.8696 18.9629 46.8359C18.1832 47.8356 17.5057 48.9001 16.9307 50.0273L16.6904 50.5146C16.2971 51.3409 15.9789 52.2083 15.5078 53.5986L14.9775 55.1816H14.9766L12.0537 63.9482L11.6631 65.1201L12.5361 65.9941L16.2979 69.7588L17.1729 70.6338L18.3457 70.2422L27.1055 67.3193C29.1973 66.6212 30.3581 66.2349 31.3535 65.7979L31.7725 65.6064L31.7764 65.6045C32.9177 65.0578 33.9981 64.4097 35.0156 63.6621L35.4473 63.3359L35.4551 63.3301C36.1736 62.7668 36.8441 62.1381 37.8887 61.1045L39.0732 59.9238L64.6553 34.3418L61.668 33.2832C58.9321 32.3138 56.4328 30.7807 54.3311 28.7852L53.916 28.3799L53.9111 28.375L53.5059 27.96C51.5124 25.8578 49.9815 23.3582 49.0137 20.623L47.9561 17.6348L45.7139 19.876ZM59.8525 10.6504C56.9224 10.6453 54.102 11.7294 51.9336 13.6797L51.5088 14.0811L51.5068 14.084L49.4619 16.1221L48.7031 16.8789L48.9131 17.9307C49.0348 18.5393 49.2329 19.3664 49.5693 20.3271V20.3262C50.5712 23.1925 52.2102 25.7946 54.3633 27.9355V27.9346C56.368 29.949 58.7758 31.5138 61.4268 32.5264L61.9609 32.7217H61.9629C62.9255 33.0575 63.7516 33.2552 64.3604 33.377L65.4092 33.5869L66.166 32.8301L68.208 30.7891L68.2129 30.7842C70.4149 28.5666 71.648 25.5666 71.6426 22.4414C71.6371 19.3162 70.3934 16.3203 68.1836 14.1104C65.9737 11.9004 62.9778 10.6559 59.8525 10.6504Z" stroke="white" stroke-width="4"/>
</g>
<defs>
<filter id="filter0_d_1052_736" x="0" y="0" width="82.293" height="82.293" filterUnits="userSpaceOnUse" color-interpolation-filters="sRGB">
<feFlood flood-opacity="0" result="BackgroundImageFix"/>
<feColorMatrix in="SourceAlpha" type="matrix" values="0 0 0 0 0 0 0 0 0 0 0 0 0 0 0 0 0 0 127 0" result="hardAlpha"/>
<feOffset/>
<feGaussianBlur stdDeviation="4"/>
<feComposite in2="hardAlpha" operator="out"/>
<feColorMatrix type="matrix" values="0 0 0 0 1 0 0 0 0 1 0 0 0 0 1 0 0 0 1 0"/>
<feBlend mode="normal" in2="BackgroundImageFix" result="effect1_dropShadow_1052_736"/>
<feBlend mode="normal" in="SourceGraphic" in2="effect1_dropShadow_1052_736" result="shape"/>
</filter>
</defs>
</svg>
